# xmcd CD database file
#
# Track frame offsets:
#	150
#	3590
#	14710
#	19196
#	33967
#	43878
#	57730
#	70684
#	75686
#	92369
#	107312
#	122662
#	136205
#	147171
#	160716
#	176208
#	197034
#
# Disc length: 2762 seconds
#
# Revision: 1
# Processed by: cddbd v1.5.2PL0 Copyright (c) Steve Scherf et al.
# Submitted via: jetAudio 7
#
DISCID=e10ac811
DTITLE=Artiste inconnu - Album inconnu
DYEAR=1900
DGENRE=Genre inconnu
TTITLE0=Piste 1
TTITLE1=Piste 2
TTITLE2=Piste 3
TTITLE3=Piste 4
TTITLE4=Piste 5
TTITLE5=Piste 6
TTITLE6=Piste 7
TTITLE7=Piste 8
TTITLE8=Piste 9
TTITLE9=Piste 10
TTITLE10=Piste 11
TTITLE11=Piste 12
TTITLE12=Piste 13
TTITLE13=Piste 14
TTITLE14=Piste 15
TTITLE15=Piste 16
TTITLE16=Piste 17
EXTD=
EXTT0=
EXTT1=
EXTT2=
EXTT3=
EXTT4=
EXTT5=
EXTT6=
EXTT7=
EXTT8=
EXTT9=
EXTT10=
EXTT11=
EXTT12=
EXTT13=
EXTT14=
EXTT15=
EXTT16=
PLAYORDER=
